<svg xmlns="http://www.w3.org/2000/svg" viewBox="0 0 16 16"><path fill="#111827" d="M8 0a8 8 0 0 0-2.53 15.59c.4.07.55-.17.55-.38v-1.33c-2.23.49-2.7-1.08-2.7-1.08-.36-.93-.89-1.18-.89-1.18-.73-.5.06-.49.06-.49.8.06 1.22.82 1.22.82.72 1.22 1.88.87 2.34.67.07-.52.28-.87.51-1.07-1.78-.2-3.64-.89-3.64-3.96 0-.88.31-1.59.82-2.15-.08-.2-.36-1.02.08-2.12 0 0 .67-.21 2.2.82A7.7 7.7 0 0 1 8 3.85c.68 0 1.37.09 2.01.27 1.53-1.03 2.2-.82 2.2-.82.44 1.1.16 1.92.08 2.12.51.56.82 1.27.82 2.15 0 3.08-1.87 3.76-3.65 3.96.29.25.54.73.54 1.48v2.2c0 .21.14.46.55.38A8 8 0 0 0 8 0Z"/></svg>
