<svg width="934" height="934" viewBox="0 0 934 934" fill="none" xmlns="http://www.w3.org/2000/svg">
<path d="M-1.27187e-05 813.045C-8.02517e-06 920.421 129.822 974.196 205.749 898.27L552.018 552.008L-2.4129e-05 552.008L-1.27187e-05 813.045ZM-2.4129e-05 552.008L552.018 9.79408e-05L120.526 0.000116802C53.9612 0.000119712 -4.58993e-05 53.9613 -4.29897e-05 120.526L-2.4129e-05 552.008ZM552.018 9.79408e-05L552.018 552.008L898.261 205.748C974.186 129.821 920.41 8.18379e-05 813.035 8.65314e-05L552.018 9.79408e-05ZM552.018 552.008L552.018 813.031C552.018 920.41 681.844 974.184 757.77 898.254L898.261 757.756C974.185 681.828 920.41 552.008 813.035 552.008L552.018 552.008Z" fill="url(#paint0_linear_6_49)" fill-opacity="0.75"/>
<defs>
<linearGradient id="paint0_linear_6_49" x1="-1.53563e-05" y1="8.91681e-05" x2="1104.02" y2="1104" gradientUnits="userSpaceOnUse">
<stop stop-color="#FF1F00"/>
<stop offset="1" stop-color="#FFD600"/>
</linearGradient>
</defs>
</svg>
