<svg width="200" height="228" viewBox="0 0 200 228" fill="none" xmlns="http://www.w3.org/2000/svg">
<path opacity="0.9" d="M100 228C115.768 228 128.558 215.242 128.558 199.5H71.4421C71.4421 215.242 84.2322 228 100 228ZM196.156 161.332C187.531 152.088 171.393 138.18 171.393 92.625C171.393 58.0242 147.071 30.3258 114.277 23.5303V14.25C114.277 6.38133 107.884 0 100 0C92.1161 0 85.7233 6.38133 85.7233 14.25V23.5303C52.9287 30.3258 28.6074 58.0242 28.6074 92.625C28.6074 138.18 12.469 152.088 3.84405 161.332C1.16548 164.205 -0.0220127 167.638 0.000308655 171C0.0494156 178.303 5.79493 185.25 14.3306 185.25H185.669C194.205 185.25 199.955 178.303 200 171C200.022 167.638 198.835 164.2 196.156 161.332Z" fill="url(#paint0_linear_155_62)" fill-opacity="0.75"/>
<defs>
<linearGradient id="paint0_linear_155_62" x1="200" y1="6.79493e-06" x2="-26.0567" y2="198.295" gradientUnits="userSpaceOnUse">
<stop stop-color="#FF1F00"/>
<stop offset="1" stop-color="#FFD600"/>
</linearGradient>
</defs>
</svg>
