<svg width="99" height="99" viewBox="0 0 99 99" fill="none" xmlns="http://www.w3.org/2000/svg">
<path d="M3.20928e-06 86.1966C3.70688e-06 97.5803 13.7635 103.281 21.8131 95.2319L58.5239 58.5223H1.99958e-06L3.20928e-06 86.1966ZM1.99958e-06 58.5223L58.5239 1.20959e-06L12.778 3.2092e-06C5.72087 3.51771e-06 -3.0847e-07 5.72081 0 12.7778L1.99958e-06 58.5223ZM58.5239 1.20959e-06V58.5223L95.232 21.8128C103.281 13.7632 97.5802 -4.97591e-07 86.1965 0L58.5239 1.20959e-06ZM58.5239 58.5223V86.1951C58.5239 97.5791 72.2879 103.28 80.3374 95.2302L95.232 80.335C103.281 72.2854 97.5802 58.5223 86.1965 58.5223H58.5239Z" fill="#FFFAF6"/>
</svg>
